<svg width="20" height="23" viewBox="0 0 20 23" fill="none" xmlns="http://www.w3.org/2000/svg">
<path d="M10 5C12.1217 5 14.1566 5.84285 15.6569 7.34315C17.1571 8.84344 18 10.8783 18 13C18 15.1217 17.1571 17.1566 15.6569 18.6569C14.1566 20.1571 12.1217 21 10 21C7.87827 21 5.84344 20.1571 4.34315 18.6569C2.84285 17.1566 2 15.1217 2 13C2 10.8783 2.84285 8.84344 4.34315 7.34315C5.84344 5.84285 7.87827 5 10 5ZM10 6C9.08075 6 8.1705 6.18106 7.32122 6.53284C6.47194 6.88463 5.70026 7.40024 5.05025 8.05025C4.40024 8.70026 3.88463 9.47194 3.53284 10.3212C3.18106 11.1705 3 12.0807 3 13C3 13.9193 3.18106 14.8295 3.53284 15.6788C3.88463 16.5281 4.40024 17.2997 5.05025 17.9497C5.70026 18.5998 6.47194 19.1154 7.32122 19.4672C8.1705 19.8189 9.08075 20 10 20C11.8565 20 13.637 19.2625 14.9497 17.9497C16.2625 16.637 17 14.8565 17 13C17 11.1435 16.2625 9.36301 14.9497 8.05025C13.637 6.7375 11.8565 6 10 6ZM13.358 10.646C13.4408 10.7287 13.492 10.8379 13.5026 10.9545C13.5132 11.0711 13.4826 11.1877 13.416 11.284L13.358 11.354L9.354 15.358C9.27127 15.4408 9.1621 15.492 9.04551 15.5026C8.92892 15.5132 8.81231 15.4826 8.716 15.416L8.646 15.358L6.646 13.358C6.55742 13.2698 6.50508 13.1516 6.4993 13.0268C6.49352 12.9019 6.53472 12.7794 6.61478 12.6834C6.69483 12.5874 6.80794 12.5249 6.93182 12.5082C7.05569 12.4914 7.18134 12.5217 7.284 12.593L7.354 12.651L9 14.298L12.651 10.646C12.7448 10.5523 12.8719 10.4996 13.0045 10.4996C13.1371 10.4996 13.2642 10.5523 13.358 10.646Z" fill="#093953"/>
</svg>
